<?xml version="1.0" encoding="UTF-8"?>
<svg width="32px" height="32px" viewBox="0 0 32 32" version="1.1" xmlns="http://www.w3.org/2000/svg" xmlns:xlink="http://www.w3.org/1999/xlink">
    <!-- Generator: Sketch 49.3 (51167) - http://www.bohemiancoding.com/sketch -->
    <title>Custom Preset 4</title>
    <desc>Created with Sketch.</desc>
    <defs></defs>
    <g id="Custom-Preset-4" stroke="none" stroke-width="1" fill="none" fill-rule="evenodd">
        <g id="Orchard_Logo" transform="translate(4.000000, 2.000000)">
            <path d="M14.8255893,6.83957204 C14.8255893,6.83957204 8.79059243,3.89304454 3.40341173,9.03993074 C-1.98303282,14.1875799 -0.242762908,22.02693 3.56315732,25.0879005 C6.30607004,27.2943629 10.595644,28.6562354 14.0489461,27.6781286 C17.5081374,26.6992589 22.4190259,23.2560485 21.9714438,17.949705 C21.5238617,12.6425985 20.2812324,9.66250102 14.8255893,6.83957204" id="Fill-28" fill="#ECC263"></path>
            <path d="M11.6941526,12.5180155 C11.7331526,12.3510155 11.6481526,12.0320155 11.3741526,12.0020155 C11.0981526,11.9740155 11.0961526,12.2470155 11.0961526,12.2470155 C10.8891526,12.6470155 11.0551526,12.6860155 11.2301526,12.8060155 C11.4051526,12.9250155 11.6551526,12.6840155 11.6941526,12.5180155" id="Fill-29" fill="#FCE39D"></path>
            <path d="M5.15072232,8.19830415 L5.12728527,8.1852081 C5.13534176,8.18229787 5.1390038,8.17866007 5.14706028,8.17429472 C5.14779269,8.17866007 5.14632788,8.18229787 5.14706028,8.18593566 C5.14779269,8.19030101 5.14998991,8.1939388 5.15072232,8.19830415 M9.02955368,7.47220081 C9.02662405,7.47802128 9.02955368,7.48602442 9.02662405,7.49184489 C9.02442682,7.49038977 9.02149719,7.48893466 9.01856756,7.48675198 C9.03248331,7.46128744 9.04346942,7.43509533 9.04713146,7.39653473 C9.06324443,7.39798985 9.07716018,7.39798985 9.09254074,7.39798985 C9.07130092,7.42272684 9.04273702,7.44455359 9.02955368,7.47220081 M6.70928598,8.56062826 C6.70782116,8.55335268 6.70708875,8.54680465 6.70562394,8.53880151 C6.70928598,8.54098418 6.71294802,8.54462198 6.71661006,8.54680465 C6.71514524,8.55189756 6.71075079,8.5548078 6.70928598,8.56062826 M6.70708875,8.84655874 C6.70928598,8.85528944 6.71880728,8.86402014 6.7210045,8.8734784 C6.70269431,8.87202328 6.6924406,8.87784375 6.67559522,8.87711619 C6.69170819,8.86183746 6.70049709,8.85383432 6.70708875,8.84655874 M6.24274225,9.08810814 C6.25153114,9.08810814 6.25958763,9.0888357 6.26837652,9.08738058 C6.26691171,9.09029082 6.2661793,9.09247349 6.26471448,9.09392861 C6.25812281,9.09247349 6.25079874,9.09101838 6.24274225,9.08810814 M9.92382352,9.56902428 C10.0256282,9.3813142 10.0483328,8.98261217 9.84692071,8.96151297 C9.76196141,8.95278227 9.666016,8.91131144 9.56567614,8.87784375 C9.56933818,8.87275084 9.57373262,8.87129572 9.57666225,8.86547526 C9.60229652,8.81818396 9.62280394,8.75706905 9.63671969,8.69231634 C9.69384749,8.6930439 9.77441234,8.67267226 9.83520218,8.56062826 C9.92748556,8.39110714 9.94652816,8.06297828 9.80224384,7.98294685 C9.90111888,7.88108866 9.84765312,7.52895037 9.67480489,7.33323715 C9.62133913,7.2728498 9.54883076,7.24956793 9.47266036,7.2430199 C9.54004187,7.11278694 9.48730851,6.80939506 9.32764362,6.62968812 C9.17969726,6.46162212 8.71168872,6.30519705 8.58791181,6.16550583 C8.40993674,5.96397213 7.80716517,6.15095466 7.74857255,6.09056731 C7.5727947,5.90867769 7.36918535,6.0854744 7.14506858,6.24408214 C7.01543241,6.33648206 6.30572932,6.02144925 6.10431719,6.00035006 C5.90290506,5.97925086 5.23494921,6.91852883 5.27962608,7.03566574 C5.29940109,7.08950507 4.76767308,7.43072998 4.58603596,7.61189204 C4.44175164,7.75667617 4.49814703,7.99313267 4.62705079,8.13718924 C4.53916186,8.2114002 4.48276647,8.34672608 4.47763961,8.50533382 C4.41611737,8.45949764 4.32749603,8.42675751 4.20738116,8.47623148 C3.95763012,8.57808967 3.95982735,8.81600128 4.07554777,8.98333973 C4.11363297,9.03863417 4.17662004,9.07719477 4.24400155,9.10484199 C4.14366169,9.28600404 4.18907097,9.55010776 4.39927199,9.76692018 C4.49741462,9.86877837 4.62338875,9.88478465 4.74277121,9.86586813 C4.74423603,9.86805081 4.74423603,9.87023348 4.74496844,9.8716886 C4.70248879,9.90224606 4.65927673,9.93353107 4.61459986,9.96554364 C4.38975069,10.1241514 4.40293403,10.4799275 4.66806563,10.7527619 C4.93246482,11.0255963 5.51033452,10.9281035 5.63923828,11.0605191 C5.73518369,11.1594671 5.85822819,11.1769285 5.97541343,11.1594671 C6.03473846,11.3107992 6.26398208,11.4803203 6.41046362,11.3690039 C6.5503535,11.2627804 7.11723709,11.1907521 7.15239266,11.2904276 C7.15458988,11.2984307 7.16337877,11.3057063 7.16704081,11.3137095 C7.12016672,11.3057063 7.06670095,11.3086166 7.00444629,11.3348087 C6.75469526,11.4366668 6.75762489,11.6738509 6.87334531,11.8419169 C6.98833332,12.0092553 7.31352236,12.0783734 7.3743122,11.874657 C7.41972148,11.7240524 7.39921406,11.5799959 7.38603072,11.5152432 C7.45707427,11.5443455 7.53104746,11.5530762 7.5918373,11.50724 C7.66434566,11.4526731 7.73685403,11.4104747 7.77860127,11.3377189 C7.92068837,11.4526731 8.15798847,11.482503 8.20998942,11.3086166 C8.21072183,11.3057063 8.21072183,11.3035236 8.21145424,11.3006134 C8.30447002,11.3042512 8.32863948,11.2227647 8.415796,11.1812938 C9.47558999,10.6705478 9.18995097,9.82148707 9.23169821,9.8505894 C9.34668623,9.92843816 9.65576229,9.69270922 9.65576229,9.69270922 C9.65576229,9.69270922 9.82128644,9.75673436 9.92382352,9.56902428" id="Fill-30" fill="#FCE39D"></path>
            <path d="M11.7890867,10.1134858 C11.5796451,9.88436979 11.1478335,10.0354536 11.0297532,10.2720408 C10.911673,10.508628 11.1831714,10.8913182 11.1831714,10.8913182 C11.460703,11.0930399 11.8011533,10.9710107 11.932162,10.8689046 C12.0631708,10.7667986 11.9985283,10.343432 11.7890867,10.1134858" id="Fill-31" fill="#FCE39D"></path>
            <path d="M11.2831499,12.0343225 C10.9421499,12.1753225 10.9451499,12.5013225 11.1031499,12.7313225 C11.2611499,12.9623225 11.7051499,13.0563225 11.7881499,12.7773225 C11.8711499,12.4973225 11.7921499,12.2323225 11.7921499,12.2323225 C11.7921499,12.2323225 11.6241499,11.8933225 11.2831499,12.0343225" id="Fill-32" fill="#FCE39D"></path>
            <path d="M11.283653,10.0343225 C10.941653,10.1753225 10.945653,10.5023225 11.102653,10.7313225 C11.260653,10.9633225 11.705653,11.0573225 11.787653,10.7773225 C11.870653,10.4973225 11.791653,10.2323225 11.791653,10.2323225 C11.791653,10.2323225 11.624653,9.89332251 11.283653,10.0343225" id="Fill-33" fill="#FCE39D"></path>
            <path d="M11.3726696,12.0021644 C11.0986696,11.9731644 11.0966696,12.2451644 11.0966696,12.2451644 C10.8886696,12.6461644 11.0556696,12.6851644 11.2286696,12.8051644 C11.4036696,12.9251644 11.6536696,12.6841644 11.6926696,12.5171644 C11.7316696,12.3501644 11.6476696,12.0301644 11.3726696,12.0021644" id="Fill-34" fill="#FCE39D"></path>
            <path d="M4.3736333,12.002157 C4.0986333,11.973157 4.0966333,12.246157 4.0966333,12.246157 C3.8886333,12.647157 4.0556333,12.686157 4.2296333,12.805157 C4.4046333,12.925157 4.6536333,12.684157 4.6926333,12.517157 C4.7316333,12.350157 4.6476333,12.031157 4.3736333,12.002157" id="Fill-35" fill="#FCE39D"></path>
            <path d="M4.28314988,12.0344014 C3.94214988,12.1754014 3.94514988,12.5014014 4.10314988,12.7314014 C4.26114988,12.9624014 4.70514988,13.0564014 4.78814988,12.7764014 C4.87114988,12.4974014 4.79214988,12.2314014 4.79214988,12.2314014 C4.79214988,12.2314014 4.62514988,11.8934014 4.28314988,12.0344014" id="Fill-36" fill="#FCE39D"></path>
            <path d="M11.3726696,12.0020224 C11.0986696,11.9740224 11.0966696,12.2460224 11.0966696,12.2460224 C10.8886696,12.6470224 11.0556696,12.6860224 11.2286696,12.8060224 C11.4036696,12.9250224 11.6536696,12.6850224 11.6926696,12.5180224 C11.7316696,12.3510224 11.6476696,12.0310224 11.3726696,12.0020224" id="Fill-37" fill="#FCE39D"></path>
            <path d="M4.23059702,10.8051644 C4.40559702,10.9251644 4.65459702,10.6841644 4.69359702,10.5171644 C4.73259702,10.3501644 4.64859702,10.0321644 4.37459702,10.0021644 C4.09859702,9.97316443 4.09659702,10.2451644 4.09659702,10.2451644 C3.88859702,10.6461644 4.05559702,10.6851644 4.23059702,10.8051644" id="Fill-38" fill="#FCE39D"></path>
            <path d="M13,28.118 C13.3377892,28.125 13.6724936,28.086 14,28 L13,28.118 Z" id="Fill-39" fill="#E4AC3F"></path>
            <path d="M4.0930995,23.1560726 C3.15744736,22.3397134 1.11595752,19.358858 1.1741595,16.4977862 C1.25741044,12.4190422 3.57370205,8.25408454 7.87696518,7.36295603 C13.3177456,6.23531225 16.1342795,8.83621729 17.9584329,12.3457988 C19.1615194,14.6590707 18.5220344,18.8026657 17.6151148,20.4727687 C14.6681789,25.8973609 8.22028322,26.7610231 4.0930995,23.1560726 M21.6288415,20.9564806 C21.6700986,20.8283045 21.7098823,20.6986026 21.7452455,20.5666118 C21.7960801,20.3766367 21.8395474,20.1836097 21.8756474,19.9867679 C21.8925923,19.8921618 21.9080637,19.7967928 21.9213249,19.7006608 C21.951531,19.487797 21.973633,19.2718815 21.9861575,19.0521511 C21.9905779,18.9705152 21.9942616,18.8888793 21.9964718,18.8064804 C22.0038391,18.5264769 22.0008922,18.2418956 21.9758432,17.9496848 C21.527909,12.6433502 20.2850387,9.66249484 14.8243665,6.83957062 C14.8243665,6.83957062 8.78462144,3.8930481 3.39393896,9.03992561 C0.817580261,11.5004474 -0.11733515,14.57362 0.0115932954,17.448425 C0.0815830228,19.0033222 0.460264285,20.4956573 1.07175348,21.8041208 C1.07985756,21.8209057 1.0872249,21.8392166 1.09532897,21.8575275 C1.23309822,22.1482124 1.38339195,22.42669 1.54252649,22.6967752 C1.56536524,22.7356858 1.58525706,22.7768852 1.60883255,22.8150328 C1.75691608,23.0599406 1.91678735,23.2903522 2.08255249,23.5161862 C2.12086266,23.5688299 2.15622589,23.6275772 2.19600952,23.680221 C2.3558808,23.888507 2.52606634,24.080771 2.69846209,24.2692203 C2.75003347,24.3249158 2.79571098,24.386715 2.84801909,24.4408846 C3.07345968,24.6743481 3.30921456,24.8917895 3.55381023,25.0878683 C3.7807243,25.2709769 4.02163631,25.445693 4.26917892,25.6158314 C4.32885437,25.6570309 4.38926656,25.6974673 4.45041548,25.7379038 C4.7001683,25.9042275 4.95655172,26.0652104 5.22251268,26.217038 C5.22324942,26.2178009 5.22398615,26.2178009 5.22472288,26.2185639 C5.49952466,26.3749692 5.7846407,26.5199301 6.07344042,26.6595504 C6.13016894,26.6862538 6.18542398,26.7121942 6.24141577,26.7381345 C6.53095222,26.8724142 6.8234356,27.0005902 7.12328633,27.115796 C9.36664128,27.9817471 11.8730103,28.2937947 14.0478489,27.678855 C16.3376181,27.0311083 19.2550847,25.2992061 20.8434831,22.6670201 C21.1175481,22.2138263 21.3503561,21.7331662 21.5345396,21.2265657 C21.5669559,21.1373003 21.5993722,21.0472719 21.6288415,20.9564806" id="Fill-40" fill="#E4AC3F"></path>
            <path d="M11.8793681,23.1290261 C11.8793681,23.1290261 12.1642929,23.5477239 11.858364,23.8415614 C11.5533484,24.1370638 11.017288,23.9664216 11.00085,23.7574889 C10.9853253,23.5485563 11.1825809,23.0016688 11.5825714,23.000004 C11.9816488,22.9991716 11.8793681,23.1290261 11.8793681,23.1290261" id="Fill-41" fill="#E4AC3F"></path>
            <path d="M11.8790481,23.1290833 C11.8790481,23.1290833 12.1641332,23.5479284 11.858946,23.8418694 C11.552845,24.1366431 11.0173967,23.9667735 11.0009495,23.7577673 C10.9845022,23.5487611 11.1818688,23.0016812 11.5829982,23.0000158 C11.9823001,22.9983504 11.8790481,23.1290833 11.8790481,23.1290833" id="Fill-42" fill="#E4AC3F"></path>
            <path d="M19.8793681,12.1291127 C19.8793681,12.1291127 20.1642929,12.5472203 19.858364,12.8420611 C19.5533484,13.1369019 19.017288,12.9661607 19.00085,12.7579398 C18.9853253,12.5488861 19.1825809,12.0016815 19.5825714,12.0000158 C19.982562,11.99835 19.8793681,12.1291127 19.8793681,12.1291127" id="Fill-43" fill="#E4AC3F"></path>
            <path d="M19.8791466,12.1290261 C19.8791466,12.1290261 20.1639996,12.5477239 19.8590608,12.8415614 C19.553209,13.1370638 19.0172836,12.9664216 19.0008498,12.7574889 C18.985329,12.5485563 19.1825349,12.0016688 19.5824247,12.000004 C19.9823145,11.9991716 19.8791466,12.1290261 19.8791466,12.1290261" id="Fill-44" fill="#E4AC3F"></path>
            <path d="M19.8791466,19.128286 C19.8791466,19.128286 20.1639996,19.5472463 19.8590608,19.842101 C19.553209,20.1369557 19.0172836,19.9662065 19.0008498,19.7571428 C18.985329,19.5489121 19.1825349,19.0008488 19.5824247,19.0000159 C19.9823145,18.99835 19.8791466,19.128286 19.8791466,19.128286" id="Fill-45" fill="#E4AC3F"></path>
            <path d="M17.0658242,23.3575277 C17.0658242,23.3575277 17.3187507,22.8768093 17.6742358,23.0302092 C18.0297208,23.1836092 18.0744456,23.7884156 17.9040287,23.905664 C17.7336118,24.0229124 17.2030831,24.0981468 17.0611975,23.7082958 C16.9208541,23.320399 17.0658242,23.3575277 17.0658242,23.3575277" id="Fill-46" fill="#E4AC3F"></path>
            <path d="M17.0661441,23.3578331 C17.0661441,23.3578331 17.318984,22.8761308 17.6743473,23.03051 C18.0297107,23.1839122 18.0744202,23.7877499 17.9040616,23.905977 C17.7329322,24.0232271 17.203356,24.0974854 17.061519,23.7086061 C16.9204529,23.3207039 17.0661441,23.3578331 17.0661441,23.3578331" id="Fill-47" fill="#E4AC3F"></path>
            <path d="M17.0647963,23.3451659 C17.0647963,23.3451659 17.3082902,22.8708649 17.664876,23.0342432 C18.0220388,23.1983413 18.0768538,23.8036329 17.9089469,23.9159105 C17.741617,24.0281881 17.2142392,24.0879256 17.0659503,23.6956736 C16.9182383,23.3034217 17.0647963,23.3451659 17.0647963,23.3451659" id="Fill-48" fill="#E4AC3F"></path>
            <path d="M11.8181773,25.1006143 C11.8181773,25.1006143 12.1457749,25.5118376 11.9215083,25.7741139 C11.6964763,26.0363901 11.3849524,26.0711984 11.2303386,25.8736817 C11.0764902,25.676165 10.9088643,25.4988857 11.0581203,25.3240348 C11.2081416,25.1499935 11.4959376,24.8391475 11.8181773,25.1006143" id="Fill-49" fill="#E4AC3F"></path>
            <path d="M11.8181773,23.100816 C11.8181773,23.100816 12.1457749,23.5115074 11.9215083,23.7739611 C11.6964763,24.0364148 11.384187,24.0712466 11.2303386,23.8735963 C11.0764902,23.675946 10.9088643,23.4993568 11.0581203,23.3243877 C11.2081416,23.1494186 11.4959376,22.8391724 11.8181773,23.100816" id="Fill-50" fill="#E4AC3F"></path>
            <path d="M19.8181773,17.1011473 C19.8181773,17.1011473 20.1457749,17.5116874 19.9215083,17.7740444 C19.6964763,18.0364013 19.3849524,18.0712203 19.2303386,17.8736428 C19.0764902,17.6760654 18.9088643,17.4995412 19.0581203,17.3238268 C19.2081416,17.1497319 19.4959376,16.8387903 19.8181773,17.1011473" id="Fill-51" fill="#E4AC3F"></path>
            <path d="M11.8184389,23.100816 C11.8184389,23.100816 12.1461348,23.5115074 11.9210352,23.7739611 C11.6967013,24.0364148 11.3843183,24.0712466 11.229658,23.8735963 C11.0765291,23.675946 10.9088529,23.4993568 11.0581536,23.3243877 C11.2074544,23.1494186 11.4953368,22.8391724 11.8184389,23.100816" id="Fill-52" fill="#E4AC3F"></path>
            <path d="M7.74751232,23.0875152 C7.74751232,23.0875152 8.04751232,23.4425152 7.84251232,23.6695152 C7.63651232,23.8965152 7.35151232,23.9265152 7.21051232,23.7555152 C7.06951232,23.5845152 6.91651232,23.4325152 7.05351232,23.2805152 C7.18951232,23.1295152 7.45251232,22.8605152 7.74751232,23.0875152" id="Fill-53" fill="#E4AC3F"></path>
            <path d="M19.7475123,10.0875152 C19.7475123,10.0875152 20.0465123,10.4415152 19.8415123,10.6685152 C19.6365123,10.8965152 19.3515123,10.9255152 19.2105123,10.7545152 C19.0695123,10.5845152 18.9165123,10.4315152 19.0535123,10.2805152 C19.1895123,10.1295152 19.4525123,9.8605152 19.7475123,10.0875152" id="Fill-54" fill="#E4AC3F"></path>
            <path d="M7.9457353,23.7366893 C7.9457353,23.7366893 7.61054759,24.128453 7.31101814,23.9562574 C7.0114887,23.7833099 6.91639998,23.4847875 7.0780508,23.2998088 C7.23970161,23.1148302 7.37837265,22.9193243 7.57805895,23.034372 C7.77774524,23.1494197 8.13670514,23.3757553 7.9457353,23.7366893" id="Fill-55" fill="#E4AC3F"></path>
            <path d="M19.9457353,10.7368652 C19.9457353,10.7368652 19.61134,11.1283672 19.3110181,10.9562866 C19.0114887,10.7834547 18.9164,10.4851316 19.0780508,10.3002765 C19.2397016,10.1154215 19.3783726,9.91929472 19.5780589,10.0342656 C19.7777452,10.1499879 20.1367051,10.3761723 19.9457353,10.7368652" id="Fill-56" fill="#E4AC3F"></path>
            <path d="M7.94553992,25.7364209 C7.94553992,25.7364209 7.61095526,26.128732 7.3113557,25.9561151 C7.01175613,25.7834982 6.91634225,25.4847382 7.07790975,25.2994466 C7.24011334,25.1147586 7.37814541,24.9192066 7.57787845,25.0344857 C7.7776115,25.1491613 8.13700376,25.3748911 7.94553992,25.7364209" id="Fill-57" fill="#E4AC3F"></path>
            <path d="M19.9455293,12.7369065 C19.9455293,12.7369065 19.6108793,13.1287125 19.3112213,12.9560522 C19.0115632,12.7839957 18.9161307,12.4851606 19.078366,12.2998225 C19.239965,12.1150881 19.378024,11.9194869 19.5777961,12.0341913 C19.7775681,12.1494994 20.1370305,12.3752859 19.9455293,12.7369065" id="Fill-58" fill="#E4AC3F"></path>
            <path d="M19.9455245,19.7364209 C19.9455245,19.7364209 19.6115124,20.128732 19.3112197,19.9561151 C19.0115632,19.7834982 18.9161311,19.4847382 19.0783656,19.2994466 C19.2399638,19.1147586 19.3780221,18.9192066 19.5784293,19.0344857 C19.7775642,19.1491613 20.1370248,19.3748911 19.9455245,19.7364209" id="Fill-59" fill="#E4AC3F"></path>
            <path d="M19.9455245,19.7364209 C19.9455245,19.7364209 19.6115124,20.128732 19.3112197,19.9561151 C19.0115632,19.7834982 18.9161311,19.4847382 19.0783656,19.2994466 C19.2406,19.1147586 19.3780221,18.9192066 19.5784293,19.0344857 C19.7775642,19.1491613 20.1370248,19.3748911 19.9455245,19.7364209" id="Fill-60" fill="#E4AC3F"></path>
            <path d="M11.8184389,23.1011473 C11.8184389,23.1011473 12.1461348,23.5116874 11.9210352,23.7740444 C11.6967013,24.0364013 11.3843183,24.0712203 11.229658,23.8736428 C11.0765291,23.6760654 10.9088529,23.4987315 11.0581536,23.3238268 C11.2074544,23.1497319 11.4953368,22.8387903 11.8184389,23.1011473" id="Fill-61" fill="#E4AC3F"></path>
            <path d="M19.8181773,12.1006638 C19.8181773,12.1006638 20.1457749,12.5120897 19.9215083,12.7744951 C19.6964763,13.0369006 19.3849524,13.0709161 19.2303386,12.8733021 C19.0764902,12.6756881 18.9088643,12.4991314 19.0581203,12.3241944 C19.2081416,12.1500673 19.4959376,11.8390683 19.8181773,12.1006638" id="Fill-62" fill="#E4AC3F"></path>
            <path d="M19.8181773,19.1006143 C19.8181773,19.1006143 20.1457749,19.5118376 19.9215083,19.7741139 C19.6964763,20.0363901 19.3849524,20.0711984 19.2303386,19.8736817 C19.0764902,19.676165 18.9088643,19.4988857 19.0581203,19.3240348 C19.2081416,19.1499935 19.4959376,18.8391475 19.8181773,19.1006143" id="Fill-63" fill="#E4AC3F"></path>
            <path d="M11.8090643,23.0944948 C11.8090643,23.0944948 12.1320643,23.4784948 11.9110643,23.7234948 C11.6890643,23.9684948 11.3790643,24.0014948 11.2280643,23.8164948 C11.0760643,23.6314948 10.9100643,23.4664948 11.0570643,23.3034948 C11.2050643,23.1394948 11.4900643,22.8494948 11.8090643,23.0944948" id="Fill-64" fill="#E4AC3F"></path>
            <path d="M11.8181773,25.1011473 C11.8181773,25.1011473 12.1457749,25.5116874 11.9215083,25.7740444 C11.6964763,26.0364013 11.384187,26.0712203 11.2303386,25.8736428 C11.0764902,25.6760654 10.9088643,25.4987315 11.0581203,25.3238268 C11.2081416,25.1497319 11.4959376,24.8387903 11.8181773,25.1011473" id="Fill-65" fill="#E4AC3F"></path>
            <path d="M19.8178584,12.100816 C19.8178584,12.100816 20.1462103,12.5115074 19.9211859,12.7739611 C19.6969269,13.0364148 19.3846482,13.0712466 19.2300396,12.8735963 C19.0761964,12.675946 18.9085762,12.4993568 19.0585925,12.3243877 C19.2078433,12.1494186 19.4956296,11.8391724 19.8178584,12.100816" id="Fill-66" fill="#E4AC3F"></path>
            <path d="M19.1411474,19.1486001 C19.1411474,19.1486001 18.9021474,19.2336001 19.0461474,19.5556001 C19.1901474,19.8776001 19.5381474,19.8916001 19.7451474,19.7426001 C19.9521474,19.5936001 19.9121474,19.2086001 19.8001474,19.0876001 C19.6891474,18.9676001 19.3401474,18.9556001 19.1411474,19.1486001" id="Fill-67" fill="#E4AC3F"></path>
            <path d="M11.1420118,25.1486001 C11.1420118,25.1486001 10.9020118,25.2336001 11.0460118,25.5556001 C11.1910118,25.8786001 11.5380118,25.8916001 11.7450118,25.7436001 C11.9520118,25.5936001 11.9130118,25.2096001 11.8000118,25.0876001 C11.6890118,24.9676001 11.3410118,24.9556001 11.1420118,25.1486001" id="Fill-68" fill="#E4AC3F"></path>
            <path d="M19.1411474,10.1489436 C19.1411474,10.1489436 18.9021474,10.2339436 19.0461474,10.5559436 C19.1901474,10.8779436 19.5381474,10.8909436 19.7451474,10.7429436 C19.9521474,10.5939436 19.9121474,10.2089436 19.8001474,10.0879436 C19.6891474,9.96794358 19.3401474,9.95494358 19.1411474,10.1489436" id="Fill-69" fill="#E4AC3F"></path>
            <path d="M11.1420118,23.1486001 C11.1420118,23.1486001 10.9020118,23.2336001 11.0460118,23.5556001 C11.1910118,23.8786001 11.5380118,23.8916001 11.7460118,23.7426001 C11.9520118,23.5936001 11.9130118,23.2086001 11.8000118,23.0876001 C11.6890118,22.9676001 11.3410118,22.9556001 11.1420118,23.1486001" id="Fill-70" fill="#E4AC3F"></path>
            <path d="M16.0177752,20.4094127 L15.9233859,20.7651742 C15.9233859,20.7651742 15.4276212,20.7301934 15.3411712,20.9132841 C15.2547211,21.0971189 15.2150247,20.4667216 14.5137206,20.7346591 C13.8124166,21.0018523 13.9729667,21.3055148 13.9729667,21.3055148 C13.9729667,21.3055148 13.6800951,21.0539512 13.4992557,21.0613939 C13.316652,21.0695809 12.9179231,21.0040851 12.9717339,21.3903616 C13.0255446,21.7781267 13.0564197,21.7230507 13.0564197,21.7230507 C13.0564197,21.7230507 12.4080442,21.7424017 12.2721941,21.8815804 C12.136344,22.0200147 12.1707476,22.4100126 12.1707476,22.4100126 C12.1707476,22.4100126 11.8196545,22.5953361 11.7305581,22.6585991 C11.6405794,22.7218621 11.7243831,23.1565163 11.7243831,23.1565163 C11.7243831,23.1565163 11.047779,23.0262689 11.0054361,23.4438048 C10.9639754,23.8613407 11.164222,24.0570839 11.4509186,24.0697365 C11.4509186,24.0697365 11.1712791,24.5192761 11.4438614,24.7738167 C11.7164438,25.0283573 12.0463654,25.052174 12.2254405,24.9241594 C12.4045156,24.7976334 12.4300978,24.3987042 12.4300978,24.3987042 L12.7273801,24.461223 C12.7273801,24.461223 12.5500693,24.7083209 12.9487982,24.8772704 C13.347527,25.0462198 13.6509843,24.9360678 13.643045,24.6792943 C13.6342236,24.4240094 13.6950915,24.2089152 13.6950915,24.2089152 C13.6950915,24.2089152 13.7021487,24.6718516 14.4193313,24.4880167 L14.7668958,24.389773 C14.7668958,24.389773 14.6619207,24.7976334 15.0024281,24.7686068 C15.3420533,24.7395803 15.487607,24.7544657 15.6763857,24.5743522 C15.6763857,24.5743522 15.979843,24.6703631 16.3071183,24.5736079 C16.6343935,24.4775969 16.6793828,24.1791444 16.6793828,24.1791444 C16.6793828,24.1791444 16.9396151,24.2647355 17.1804403,24.1456522 C17.4230297,24.0265688 17.4150904,23.6678303 17.4150904,23.6678303 C17.4150904,23.6678303 17.6320977,23.7407688 18.0220051,23.6529449 C18.4127947,23.5658652 18.6456805,23.2934621 18.5971626,23.0426428 C18.5971626,23.0426428 19.1335058,23.1922413 19.4457846,22.9094184 C19.7571813,22.6265955 19.6310348,22.2842309 19.6310348,22.2842309 C19.6310348,22.2842309 19.8515706,22.3742877 20.1029815,22.3058147 C20.3543924,22.2365976 20.5837497,21.9478205 20.3570388,21.7215622 L20.4108496,21.4744642 C20.4108496,21.4744642 21.2197751,21.449159 21.1959572,21.1090273 C21.1712572,20.7696398 21.0786321,20.7138195 21.0786321,20.7138195 C21.0786321,20.7138195 21.440311,20.9043528 21.7587647,20.7584757 C21.7587647,20.7584757 22.178665,20.5121221 21.9104934,20.2739554 C21.6405575,20.0365331 21.6299718,20.1920856 21.6299718,20.1920856 C21.6299718,20.1920856 22.0516364,19.8430226 21.6758433,19.6882143 C21.3000502,19.533406 21.0195285,19.5549898 20.8669177,19.7127752 C20.7143069,19.8705607 20.8219284,19.3756206 20.3561567,19.4909825 C20.3561567,19.4909825 20.6207997,18.9573404 20.161203,19.0027409 C19.7024884,19.0481414 19.5022418,19.2810982 19.5128275,19.3317086 C19.5225311,19.3815747 19.3999132,19.3808305 19.3999132,19.3808305" id="Fill-71" fill="#E4AC3F"></path>
            <path d="M22.6631282,18.6726193 C22.6631282,18.6726193 23.3352194,17.53939 22.7799178,17.1338716 C22.2246162,16.7272423 22.461868,16.7861258 22.461868,16.7861258 C22.461868,16.7861258 23.252218,16.2828386 22.9172741,15.7839955 C22.5830648,15.2851524 22.4486466,15.472913 22.4486466,15.472913 C22.4486466,15.472913 22.9819124,15.1873836 22.8915657,14.8218616 C22.8004845,14.4574506 22.5066741,14.3363506 22.5066741,14.3363506 C22.5066741,14.3363506 23.0913568,13.3408864 22.4192655,13.0409139 C21.7471743,12.7409414 22.0035238,13.2197864 22.0035238,13.2197864 C22.0035238,13.2197864 22.4846383,12.2121011 21.8242995,12.0254515 C21.1646952,11.838802 21.3108658,12.7309424 21.4680544,13.0020286 C21.4680544,13.0020286 20.8532562,12.9986956 20.9134873,13.5641992 L20.974453,14.1297029 C20.974453,14.1297029 20.354513,14.3207965 20.4859932,14.8296387 L20.6174733,15.3395919 C20.6174733,15.3395919 20.4338418,15.5406845 20.3214594,15.6840047 C20.2083424,15.8262139 20.2575556,16.2806166 20.2575556,16.2806166 C20.2575556,16.2806166 20.1517839,16.7316863 20.4015227,16.6705808 C20.6512615,16.6094753 20.8789646,16.5928102 20.8789646,16.5928102 C20.8789646,16.5928102 20.2024662,16.4861533 20.241396,17.3294093 C20.2803259,18.1715542 20.4970111,18.0415661 20.4970111,18.0415661 C20.4970111,18.0415661 19.603093,18.2982092 19.787459,19.0659166 C19.971825,19.8347349 19.872664,19.6258652 19.872664,19.6258652 L19.5480035,19.9380588 C19.5480035,19.9380588 19.6618551,19.3292257 19.4451699,19.4592138 C19.2284847,19.5903129 18.8957445,19.8258468 19.0316318,20.3735744 C19.16605,20.9213019 19.2997337,20.9657422 19.2997337,20.9657422 L19.1065534,21.5556881 L19.4319484,22.4444954 L20.6431817,23 L21.3453886,21.665678 C21.3453886,21.665678 22.1019503,21.3268202 22.0755074,20.5968872 C22.0483299,19.8680652 22.1460219,19.3414468 22.1460219,19.3414468 L22.6631282,18.6726193 Z" id="Fill-72" fill="#E4AC3F"></path>
            <path d="M17,8.47518877 C17,8.47518877 22.9125394,12.6170142 28,7.24824513 C28,7.24824513 21.0411537,3.74554193 17,8.47518877" id="Fill-73" fill="#47796A"></path>
            <path d="M15.963548,11 C15.963548,11 10.8988536,6.9050379 14.0114739,0 C14.0114739,0 19.1366376,4.31662951 15.963548,11" id="Fill-74" fill="#47796A"></path>
        </g>
    </g>
</svg>